# xmcd
#
# Track frame offsets:
#	150
#	19555
#	31757
#	49520
#	61407
#	79705
#	94425
#	106487
#	118537
#	135900
#	148987
#	167045
#	185972
#	197295
#	215735
#	228937
#	241555
#	259527
#	272527
#	291180
#
# Disc length: 4063 seconds
#
# Revision: 0
# Processed by: cddbd v1.5.1PL0 Copyright (c) Steve Scherf et al.
# Submitted via: audiograbber 1.83.01
#
DISCID=130fdd14
DTITLE=Music Maestro Country Club Pack 1 [CD4 of 5 ) (Various) - MMCOU104
DYEAR=1900
DGENRE=Karaoke
TTITLE0=Trisha Yearwood - She's In Love With The Boy
TTITLE1=Alan Jackson - Little Bitty
TTITLE2=Patsy Cline - Faded Love
TTITLE3=Elvis Presley - Jailhouse Rock
TTITLE4=Faith Hill - Piece Of My Heart
TTITLE5=Diamond Rio - Meet In The Middle
TTITLE6=Martina McBride - My Baby Loves Me
TTITLE7=Tanya Tucker - It's A Little Too Late
TTITLE8=Tracy Byrd - Don't Take Her She's All I Got
TTITLE9=Clint Black - Killin' Time
TTITLE10=Pam Tillis - Maybe It Was Memphis
TTITLE11=Brooks and Dunn - I Am That Man
TTITLE12=Patsy Cline - Leavin' On Your Mind
TTITLE13=Dan Seals - Love On Arrival
TTITLE14=Patty Loveless - She Drew A Broken Heart
TTITLE15=Faith Hill - Wild One
TTITLE16=John Michael Montgomery - I Can Love You Like That
TTITLE17=Shenandoah - If Bubba Can Dance
TTITLE18=Garth Brooks - Shameless
TTITLE19=Alan Jackson - Dallas
EXTD=
EXTT0=
EXTT1=
EXTT2=
EXTT3=
EXTT4=
EXTT5=
EXTT6=
EXTT7=
EXTT8=
EXTT9=
EXTT10=
EXTT11=
EXTT12=
EXTT13=
EXTT14=
EXTT15=
EXTT16=
EXTT17=
EXTT18=
EXTT19=
PLAYORDER=
